<svg width="272" height="647" viewBox="0 0 272 647" fill="none" xmlns="http://www.w3.org/2000/svg">
<path opacity="0.5" d="M693.418 88.6332C589.841 50.3053 436.129 127.063 366.789 208.768C286.894 302.929 338.362 380.916 251.524 439.01C172.306 492.039 88.922 454.156 34.8011 495.286C-14.9345 533.086 -26.8892 627.671 113.233 866.804M129.195 867.414C-8.67162 631.476 1.44765 535.877 49.5777 496.337C85.3044 467.061 135.228 474.613 188.048 464.661C214.886 459.941 240.126 450.088 261.503 435.988C331.578 389.828 315.52 332.191 348.864 261.225C357.305 243.107 368.375 225.736 381.846 209.469C449.961 126.646 594.657 46.9421 696.253 81.8159M145.13 867.997C9.5349 635.261 17.8007 538.697 64.2612 497.518C98.4168 467.25 147.143 473.083 198.464 462.273C225.008 456.952 249.941 446.974 271.363 433.099C341.065 387.937 329.516 332.668 363.955 261.965C372.666 243.976 383.677 226.661 396.812 210.297C464.023 126.504 599.368 43.6974 698.984 75.1172M161.012 868.573C27.7133 639.09 34.1765 541.529 78.9649 498.633C111.605 467.364 159.055 471.513 208.929 459.815C235.145 453.916 259.767 443.827 281.226 430.192C350.602 385.975 343.442 333.185 379.049 262.687C387.994 244.798 398.945 227.513 411.767 211.042C477.884 126.198 604.058 40.3822 701.693 68.3482M176.977 869.195C45.8986 642.886 50.5457 544.397 93.697 499.744C124.804 467.523 171.036 469.922 219.402 457.322C245.307 450.84 269.655 440.619 291.172 427.193C360.223 383.921 357.502 333.577 394.285 263.249C403.481 245.516 414.364 228.305 426.837 211.768C491.873 125.859 608.893 37.0412 704.56 61.5403M192.853 869.851C64.0605 646.691 65.3603 546.399 108.401 500.842C139.079 468.299 182.893 468.265 229.859 454.859C255.421 447.787 279.494 437.433 301.074 424.228C369.802 381.901 371.497 334.03 409.392 263.971C418.807 246.359 429.624 229.191 441.777 212.574C505.666 125.566 613.582 33.7714 707.288 54.8254M208.826 870.39C82.2431 650.493 83.3671 550.184 123.006 501.91C151.208 467.923 194.864 466.633 240.338 452.39C265.54 444.742 289.345 434.256 310.988 421.271C379.391 379.888 385.522 334.441 424.54 264.639C434.195 247.157 444.959 230.036 456.79 213.343C519.599 125.269 618.298 30.4377 710.075 48.0636M224.743 870.99C100.376 654.321 99.6742 553.039 137.802 503.054C164.383 468.106 206.712 464.893 250.785 449.9C275.604 441.681 299.143 431.054 320.837 418.275C388.921 377.858 399.519 334.853 439.625 265.269C448.977 249.089 459.311 231.997 471.724 214.065C533.414 124.887 623.062 27.1249 712.83 41.2802M240.643 871.594C118.564 658.092 116.142 555.987 152.439 504.142C177.557 468.295 218.571 463.147 261.222 447.373C285.653 438.578 308.954 427.812 330.738 415.254C398.5 375.781 413.495 335.218 454.78 265.88C464.386 249.735 474.719 232.699 486.74 214.755C547.227 124.599 627.802 23.796 715.577 34.4892M256.54 872.177C136.714 661.882 132.577 558.919 167.169 505.26C190.829 468.536 230.521 461.352 271.651 444.938C295.67 435.584 318.737 424.683 340.608 412.351C408.059 373.809 427.495 335.692 469.836 266.554C479.638 250.509 489.983 233.46 501.63 215.512C561.004 124.137 632.445 20.4157 718.26 27.6635M272.429 872.779C154.839 665.681 149.032 561.863 181.802 506.385C204.021 468.792 242.313 459.608 282.08 442.482C305.66 432.559 328.497 421.509 350.457 409.397C417.576 371.812 441.438 336.133 485.009 267.265C495.097 251.272 505.392 234.253 516.669 216.323C574.851 123.82 637.225 17.1567 721.089 20.9239M288.309 873.381C172.981 669.474 165.499 564.777 196.483 507.441C217.288 468.974 254.159 457.759 292.517 439.973C314.559 429.745 336.994 419.202 360.344 406.386C427.126 369.735 455.447 336.511 500.141 267.875C510.475 251.952 520.732 234.951 531.674 216.998C588.664 123.367 641.982 13.7468 723.877 14.0814M304.181 873.984C191.164 673.291 181.909 567.799 211.137 508.543C230.511 469.193 265.964 455.891 302.934 437.475C324.753 426.61 346.965 415.891 370.2 403.398C436.711 367.716 469.4 336.916 515.245 268.508C525.842 252.663 536.072 235.665 546.606 217.748C602.361 122.984 646.666 10.4091 726.604 7.29733M320.019 874.614C209.209 677.062 198.45 570.682 225.778 509.643C243.771 469.435 277.74 454.01 313.356 434.982C334.931 423.448 356.924 412.575 380.015 400.467C446.171 365.689 483.331 337.388 530.373 269.153C541.213 253.356 551.394 236.388 561.585 218.483C616.085 122.554 651.365 7.03729 729.347 0.478786M335.885 875.168C227.299 680.841 214.926 573.67 240.398 510.714C257.006 469.625 289.464 452.083 323.719 432.476C345.033 420.267 366.863 409.229 389.877 397.404C455.691 363.596 497.306 337.706 545.443 269.763C556.851 253.279 567.207 236.384 576.471 219.144C629.774 122.118 656.122 3.62911 732.066 -6.36248M351.718 875.774C245.39 684.631 231.43 576.526 254.957 511.837C270.195 469.876 301.121 450.185 334.105 429.95C355.144 417.055 376.789 405.88 399.694 394.4C465.204 361.521 511.257 338.09 560.498 270.404C572.142 254.06 582.473 237.19 591.426 219.899C643.357 121.625 660.768 0.274895 734.738 -13.2517M367.537 876.378C263.437 688.42 248.03 579.436 269.579 512.86C283.457 470.069 312.798 448.181 344.436 427.433C365.182 413.843 386.692 402.556 409.484 391.399C474.668 359.475 525.169 338.469 575.588 270.981C587.448 254.766 597.739 237.91 606.37 220.564C657.034 121.191 665.454 -3.12669 737.52 -20.0769M382.98 876.966C281.137 692.167 264.044 582.312 283.738 513.805C296.289 470.085 323.998 446.036 354.39 424.752C374.87 410.393 396.221 399.03 418.93 388.2C483.804 357.191 538.811 338.657 590.417 271.368C602.488 255.274 612.747 238.424 621.071 221.021C670.441 120.443 669.917 -6.86415 740.07 -27.2707M398.387 877.57C298.609 695.906 280.132 585.125 297.927 514.758C309.158 470.149 335.202 443.92 364.42 422.098C384.601 407.087 405.855 395.523 428.442 385.039C493.073 354.98 552.54 338.872 605.277 271.77C617.558 255.796 627.787 238.949 635.803 221.491C683.861 119.696 674.521 -10.6314 742.653 -34.4575M413.784 878.173C316.258 699.567 296.22 587.921 311.977 515.657C321.894 470.124 346.226 441.708 374.235 419.329C394.006 403.549 415.239 391.941 437.772 381.781C502.116 352.667 566.068 338.996 620.031 272.109C632.532 256.261 642.732 239.412 650.43 221.899C697.115 118.872 678.774 -14.3962 745.082 -41.7359M429.176 878.754C333.847 703.275 312.391 590.76 326.039 516.621C334.661 470.192 357.233 439.582 384.081 416.673C403.457 400.132 424.661 388.436 447.051 378.591C511.146 350.406 579.606 339.184 634.736 272.499C647.442 256.765 657.618 239.91 665.019 222.344C710.14 118.082 683.135 -18.1225 747.514 -48.974M444.566 879.37C293.4 599.649 326.984 474.997 394.028 413.894C467.214 347.191 573.551 362.529 649.585 272.809C738.762 167.552 676.976 -16.1502 749.992 -56.2649" stroke="black" stroke-opacity="0.12" stroke-width="0.950322" stroke-miterlimit="10"/>
</svg>
