<svg width="466" height="647" viewBox="0 0 466 647" fill="none" xmlns="http://www.w3.org/2000/svg">
<path opacity="0.5" d="M408.418 -112.367C304.841 -150.695 151.129 -73.9368 81.7888 7.76773C1.89398 101.929 53.3618 179.916 -33.4763 238.01C-112.694 291.039 -196.078 253.156 -250.199 294.286C-299.935 332.086 -311.889 426.671 -171.767 665.804M-155.805 666.414C-293.672 430.476 -283.552 334.877 -235.422 295.337C-199.696 266.061 -149.772 273.613 -96.9525 263.661C-70.1141 258.941 -44.8736 249.088 -23.4971 234.988C46.5776 188.828 30.5201 131.191 63.8639 60.2255C72.3053 42.107 83.3752 24.7355 96.8455 8.46857C164.96 -74.354 309.657 -154.058 411.253 -119.184M-139.87 666.997C-275.465 434.261 -267.199 337.697 -220.739 296.518C-186.583 266.25 -137.857 272.083 -86.5362 261.273C-59.9922 255.952 -35.059 245.974 -13.6372 232.099C56.0653 186.937 44.5162 131.668 78.9546 60.9651C87.6663 42.9763 98.6773 25.6614 111.812 9.29709C179.023 -74.4961 314.368 -157.303 413.983 -125.883M-123.988 667.573C-257.287 438.09 -250.824 340.529 -206.035 297.633C-173.395 266.364 -125.945 270.513 -76.0714 258.815C-49.8554 252.916 -25.2331 242.827 -3.77435 229.192C65.6022 184.975 58.4416 132.185 94.0486 61.6865C102.994 43.7983 113.945 26.5125 126.767 10.0422C192.884 -74.8018 319.058 -160.618 416.693 -132.652M-108.023 668.195C-239.101 441.886 -234.454 343.397 -191.303 298.744C-160.196 266.523 -113.964 268.922 -65.5977 256.322C-39.6935 249.84 -15.3453 239.619 6.17172 226.193C75.2231 182.921 72.5019 132.577 109.285 62.2488C118.481 44.5159 129.364 27.3046 141.837 10.7675C206.873 -75.141 323.893 -163.959 419.56 -139.46M-92.1468 668.851C-220.94 445.691 -219.64 345.399 -176.599 299.842C-145.921 267.299 -102.107 267.265 -55.1408 253.859C-29.5786 246.787 -5.5056 236.433 16.0744 223.228C84.8015 180.901 86.4968 133.03 124.391 62.9709C133.807 45.3589 144.624 28.191 156.777 11.574C220.666 -75.4338 328.582 -167.229 422.288 -146.175M-76.1736 669.39C-202.757 449.493 -201.633 349.184 -161.994 300.91C-133.792 266.923 -90.1361 265.633 -44.662 251.39C-19.4605 243.742 4.34526 233.256 25.9878 220.271C94.3913 178.888 100.522 133.441 139.54 63.639C149.195 46.157 159.959 29.0359 171.79 12.3431C234.599 -75.7306 333.298 -170.562 425.075 -152.936M-60.257 669.99C-184.624 453.321 -185.326 352.039 -147.198 302.054C-120.617 267.106 -78.288 263.893 -34.2155 248.9C-9.39648 240.681 14.1427 230.054 35.8365 217.275C103.921 176.858 114.519 133.853 154.625 64.2688C163.977 48.0885 174.311 30.997 186.724 13.0654C248.414 -76.1127 338.062 -173.875 427.83 -159.72M-44.3568 670.594C-166.436 457.092 -168.858 354.987 -132.561 303.142C-107.443 267.295 -66.4286 262.147 -23.778 246.373C0.652695 237.578 23.9542 226.812 45.7378 214.254C113.5 174.781 128.495 134.218 169.78 64.8799C179.386 48.7346 189.719 31.6992 201.74 13.7552C262.227 -76.401 342.802 -177.204 430.577 -166.511M-28.4604 671.177C-148.286 460.882 -152.423 357.919 -117.831 304.26C-94.171 267.536 -54.4788 260.352 -13.3488 243.938C10.6696 234.584 33.737 223.683 55.6078 211.351C123.059 172.809 142.495 134.692 184.836 65.5537C194.638 49.5094 204.983 32.4601 216.63 14.5123C276.004 -76.8631 347.445 -180.584 433.26 -173.337M-12.5715 671.779C-130.161 464.681 -135.968 360.863 -103.198 305.385C-80.9794 267.792 -42.6874 258.608 -2.9205 241.482C20.6599 231.559 43.4971 220.509 65.4571 208.397C132.576 170.812 156.438 135.133 200.009 66.2647C210.097 50.2722 220.392 33.2533 231.669 15.3232C289.851 -77.1798 352.225 -183.843 436.089 -180.076M3.30865 672.381C-112.019 468.474 -119.501 363.777 -88.5168 306.441C-67.7122 267.974 -30.8412 256.759 7.51678 238.973C29.5594 228.745 51.9943 218.202 75.3438 205.386C142.126 168.735 170.447 135.511 215.14 66.8753C225.475 50.9524 235.731 33.9506 246.674 15.9983C303.664 -77.6331 356.982 -187.253 438.877 -186.919M19.181 672.984C-93.8361 472.291 -103.091 366.799 -73.8633 307.543C-54.4887 268.193 -19.0364 254.891 17.9342 236.475C39.7532 225.61 61.9646 214.891 85.2 202.398C151.711 166.716 184.4 135.916 230.245 67.5081C240.842 51.6631 251.072 34.665 261.606 16.748C317.361 -78.0165 361.666 -190.591 441.604 -193.703M35.0192 673.614C-75.7911 476.062 -86.5505 369.682 -59.2222 308.643C-41.2286 268.435 -7.25989 253.01 28.3559 233.982C49.9305 222.448 71.9235 211.575 95.0153 199.467C161.17 164.689 198.331 136.388 245.373 68.1532C256.213 52.3558 266.394 35.3877 276.585 17.4831C331.085 -78.4456 366.365 -193.963 444.347 -200.521M50.8848 674.168C-57.7011 479.841 -70.0741 372.67 -44.6016 309.714C-27.9939 268.625 4.4639 251.083 38.7185 231.476C60.0329 219.267 81.8635 208.229 104.877 196.404C170.691 162.596 212.306 136.706 260.443 68.7633C271.851 52.2789 282.207 35.3837 291.47 18.144C344.774 -78.8817 371.122 -197.371 447.066 -207.362M66.7182 674.774C-39.6102 483.631 -53.5702 375.526 -30.0429 310.837C-14.8047 268.876 16.1213 249.185 49.1053 228.95C70.1435 216.055 91.789 204.88 114.694 193.4C180.204 160.521 226.257 137.09 275.498 69.4041C287.142 53.0599 297.473 36.1899 306.426 18.899C358.357 -79.3749 375.768 -200.725 449.738 -214.252M82.5367 675.378C-21.5635 487.42 -36.9696 378.436 -15.4208 311.86C-1.54268 269.069 27.7983 247.181 59.4361 226.433C80.1822 212.843 101.692 201.556 124.484 190.399C189.668 158.475 240.169 137.469 290.588 69.9808C302.447 53.7661 312.739 36.9101 321.37 19.5638C372.034 -79.8091 380.454 -204.127 452.52 -221.077M97.98 675.966C-3.86268 491.167 -20.956 381.312 -1.2623 312.805C11.2886 269.085 38.9979 245.036 69.3901 223.752C89.8695 209.393 111.221 198.03 133.93 187.2C198.804 156.191 253.811 137.657 305.417 70.3683C317.488 54.2738 327.747 37.4236 336.071 20.021C385.441 -80.5566 384.917 -207.864 455.07 -228.271M113.387 676.57C13.609 494.906 -4.86836 384.125 12.9268 313.758C24.1585 269.149 50.2019 242.92 79.4197 221.098C99.6009 206.087 120.855 194.523 143.442 184.039C208.072 153.98 267.54 137.872 320.277 70.7696C332.558 54.796 342.787 37.9486 350.803 20.4911C398.861 -81.3035 389.521 -211.631 457.653 -235.457M128.784 677.173C31.2577 498.567 11.2199 386.921 26.9768 314.657C36.8941 269.124 61.2256 240.708 89.235 218.329C109.006 202.549 130.239 190.941 152.772 180.781C217.116 151.667 281.068 137.996 335.031 71.1091C347.531 55.2606 357.732 38.4122 365.43 20.8986C412.115 -82.128 393.774 -215.396 460.082 -242.736M144.176 677.754C48.847 502.275 27.3906 389.76 41.0386 315.621C49.6606 269.192 72.2332 238.582 99.0811 215.673C118.457 199.132 139.661 187.436 162.051 177.591C226.146 149.406 294.606 138.184 349.736 71.4994C362.442 55.7651 372.618 38.9103 380.019 21.3435C425.14 -82.9182 398.135 -219.122 462.514 -249.974M159.566 678.37C8.39961 398.649 41.9844 273.997 109.028 212.894C182.214 146.191 288.551 161.529 364.585 71.8095C453.762 -33.4476 391.976 -217.15 464.992 -257.265" stroke="black" stroke-opacity="0.12" stroke-width="0.950322" stroke-miterlimit="10"/>
</svg>
