<svg width="272" height="225" viewBox="0 0 272 225" fill="none" xmlns="http://www.w3.org/2000/svg">
<path opacity="0.5" d="M11.8278 225.5C-11.7837 140.438 4.4944 96.3194 34.8011 73.2855C88.922 32.1559 172.306 70.0384 251.524 17.0101C259.427 11.7229 266.185 6.27094 272 0.656982M28.0878 225.5C5.35325 142.408 20.5546 98.1804 49.5777 74.3373C85.3044 45.061 135.228 52.6129 188.048 42.6606C214.886 37.9409 240.126 28.0884 261.503 13.9875C265.24 11.5258 268.732 9.03142 272 6.50412M44.3244 225.5C22.4209 144.36 36.5445 100.084 64.2612 75.5179C98.4168 45.2503 147.143 51.0826 198.464 40.2728C225.008 34.9518 249.941 24.9735 271.363 11.0985C271.576 10.9604 271.788 10.8222 272 10.6839M60.5422 225.5C39.4569 146.274 52.5411 101.94 78.9649 76.6329C111.605 45.3642 159.055 49.513 208.929 37.8145C231.462 32.7445 252.818 24.5788 272 13.726M76.7787 225.5C56.459 148.147 68.5286 103.788 93.697 77.7443C124.804 45.5225 171.036 47.9216 219.402 35.322C237.881 30.6981 255.568 24.1713 272 15.9361M92.5711 225.5C72.6249 149.654 83.5622 105.133 108.401 78.8418C139.079 46.2992 182.893 46.2652 229.859 32.8586C244.454 28.8211 258.563 23.7135 272 17.6163M109.234 225.5C90.3483 151.773 100.431 107.403 123.006 79.9102C151.208 45.9228 194.864 44.6329 240.338 30.3902C251.17 27.1029 261.744 23.2913 272 18.9823M125.417 225.5C107.194 153.517 116.356 109.17 137.802 81.0541C164.383 46.1057 206.712 42.8933 250.785 27.9002C257.968 25.5212 265.045 22.9405 272 20.1644M141.656 225.5C124.065 155.23 132.281 110.935 152.439 82.1419C177.557 46.295 218.571 41.1468 261.222 25.3729C264.84 24.0705 268.433 22.725 272 21.3367M157.87 225.5C140.883 156.901 148.208 112.673 167.169 83.2595C190.829 46.5356 230.521 39.3515 271.651 22.9374C271.767 22.8921 271.884 22.8468 272 22.8014M174.063 225.5C157.64 158.53 164.08 114.388 181.802 84.385C202.136 49.9812 235.932 39.3705 272 24.6907M190.268 225.5C174.373 160.089 179.955 116.026 196.483 85.4408C213.537 53.9093 241.386 40.6888 272 27.1506M206.445 225.5C191.039 161.649 195.767 117.703 211.137 86.543C224.984 58.4197 247.043 43.6011 272 30.7119M222.614 225.5C207.68 163.108 211.612 119.284 225.778 87.6424C236.513 63.6537 252.935 48.4866 272 36.1127M238.762 225.5C224.251 164.557 227.389 120.868 240.398 88.7137C248.036 69.8183 259.025 55.9025 272 44.4755M254.905 225.5C240.772 165.924 243.12 122.385 254.957 89.8368C259.411 77.5717 265.206 67.2093 272 58.1799M271.059 225.5C257.298 167.244 258.902 123.846 269.579 90.8596C270.34 88.5127 271.148 86.2287 272 84.0043" stroke="black" stroke-opacity="0.12" stroke-miterlimit="10"/>
</svg>
